<svg width="60" height="62" viewBox="0 0 60 62" fill="none" xmlns="http://www.w3.org/2000/svg">
<path fill-rule="evenodd" clip-rule="evenodd" d="M20.0775 0.186686C24.7885 0.186686 28.6124 6.08496 28.6124 13.3556C28.6124 20.6263 24.7885 26.5246 20.0775 26.5246C15.3665 26.5246 11.5426 20.6313 11.5426 13.3556C11.5476 6.08496 15.3665 0.186686 20.0775 0.186686ZM30.9278 32.0646C40.9211 32.0848 42.164 38.75 50.5887 50.158C54.7885 58.458 49.3358 63.6903 39.989 61.45C35.7491 59.2754 32.7671 58.5085 29.7751 58.6094C24.593 58.791 23.285 62.2321 17.2559 61.9899C12.6051 61.8638 10.5102 59.901 10.1042 56.909C9.66822 53.7303 10.8861 51.7222 12.3695 49.0934C18.133 38.861 24.0919 30.783 30.9278 32.0646ZM3.59404 19.7181C0.0708215 21.1208 -1.0518 26.6659 1.08318 32.0999C3.21817 37.534 7.80387 40.8035 11.3271 39.4009C14.8503 37.9982 15.9729 32.4531 13.8379 27.019C11.703 21.585 7.11726 18.3154 3.59404 19.7181ZM56.4073 19.7181C59.9305 21.1208 61.0531 26.6659 58.9181 32.0999C56.7831 37.534 52.1924 40.8035 48.6742 39.4009C45.151 37.9982 44.0284 32.4531 46.1634 27.019C48.2984 21.585 52.8841 18.3154 56.4073 19.7181ZM39.7684 0C44.4794 0 48.3034 5.89828 48.3034 13.1689C48.3034 20.4396 44.4794 26.3379 39.7684 26.3379C35.0575 26.3379 31.2335 20.4447 31.2335 13.1689C31.2385 5.89828 35.0575 0 39.7684 0Z" fill="#FF00F5"/>
</svg>
