<svg width="97" height="67" viewBox="0 0 97 67" fill="none" xmlns="http://www.w3.org/2000/svg">
<path d="M40.8449 6.70696C40.3374 6.70696 39.8506 6.90859 39.4917 7.26749C39.1328 7.6264 38.9311 8.11318 38.9311 8.62075V58.3794C38.9311 58.8869 39.1328 59.3737 39.4917 59.7326C39.8506 60.0915 40.3374 60.2932 40.8449 60.2932C41.3525 60.2932 41.8393 60.0915 42.1982 59.7326C42.5571 59.3737 42.7587 58.8869 42.7587 58.3794V8.62075C42.7587 8.11318 42.5571 7.6264 42.1982 7.26749C41.8393 6.90859 41.3525 6.70696 40.8449 6.70696ZM25.5346 14.3621C25.027 14.3621 24.5402 14.5638 24.1813 14.9227C23.8224 15.2816 23.6208 15.7684 23.6208 16.2759V50.7242C23.6208 51.2318 23.8224 51.7186 24.1813 52.0775C24.5402 52.4364 25.027 52.638 25.5346 52.638C26.0422 52.638 26.5289 52.4364 26.8878 52.0775C27.2467 51.7186 27.4484 51.2318 27.4484 50.7242V16.2759C27.4484 15.7684 27.2467 15.2816 26.8878 14.9227C26.5289 14.5638 26.0422 14.3621 25.5346 14.3621ZM10.2242 23.9311C9.71667 23.9311 9.22989 24.1327 8.87098 24.4916C8.51208 24.8505 8.31045 25.3373 8.31045 25.8449V41.1552C8.31045 41.6628 8.51208 42.1496 8.87098 42.5085C9.22989 42.8674 9.71667 43.069 10.2242 43.069C10.7318 43.069 11.2186 42.8674 11.5775 42.5085C11.9364 42.1496 12.138 41.6628 12.138 41.1552V25.8449C12.138 25.3373 11.9364 24.8505 11.5775 24.4916C11.2186 24.1327 10.7318 23.9311 10.2242 23.9311ZM2.56907 27.7587C2.0615 27.7587 1.57472 27.9603 1.21581 28.3192C0.856905 28.6781 0.655273 29.1649 0.655273 29.6725V37.3276C0.655273 37.8352 0.856905 38.322 1.21581 38.6809C1.57472 39.0398 2.0615 39.2414 2.56907 39.2414C3.07664 39.2414 3.56342 39.0398 3.92232 38.6809C4.28123 38.322 4.48286 37.8352 4.48286 37.3276V29.6725C4.48286 29.1649 4.28123 28.6781 3.92232 28.3192C3.56342 27.9603 3.07664 27.7587 2.56907 27.7587ZM56.1553 22.0173C55.6477 22.0173 55.1609 22.2189 54.802 22.5778C54.4431 22.9367 54.2415 23.4235 54.2415 23.9311V43.069C54.2415 43.5766 54.4431 44.0634 54.802 44.4223C55.1609 44.7812 55.6477 44.9828 56.1553 44.9828C56.6628 44.9828 57.1496 44.7812 57.5085 44.4223C57.8674 44.0634 58.0691 43.5766 58.0691 43.069V23.9311C58.0691 23.4235 57.8674 22.9367 57.5085 22.5778C57.1496 22.2189 56.6628 22.0173 56.1553 22.0173ZM48.5001 16.2759C47.9925 16.2759 47.5058 16.4776 47.1468 16.8365C46.7879 17.1954 46.5863 17.6821 46.5863 18.1897V48.8104C46.5863 49.318 46.7879 49.8048 47.1468 50.1637C47.5058 50.5226 47.9925 50.7242 48.5001 50.7242C49.0077 50.7242 49.4945 50.5226 49.8534 50.1637C50.2123 49.8048 50.4139 49.318 50.4139 48.8104V18.1897C50.4139 17.6821 50.2123 17.1954 49.8534 16.8365C49.4945 16.4776 49.0077 16.2759 48.5001 16.2759ZM33.1898 0.965576C32.6822 0.965576 32.1954 1.16721 31.8365 1.52611C31.4776 1.88502 31.276 2.3718 31.276 2.87937V64.1208C31.276 64.6283 31.4776 65.1151 31.8365 65.474C32.1954 65.8329 32.6822 66.0345 33.1898 66.0345C33.6973 66.0345 34.1841 65.8329 34.543 65.474C34.9019 65.1151 35.1035 64.6283 35.1035 64.1208V2.87937C35.1035 2.3718 34.9019 1.88502 34.543 1.52611C34.1841 1.16721 33.6973 0.965576 33.1898 0.965576ZM17.8794 22.0173C17.3718 22.0173 16.8851 22.2189 16.5262 22.5778C16.1673 22.9367 15.9656 23.4235 15.9656 23.9311V43.069C15.9656 43.5766 16.1673 44.0634 16.5262 44.4223C16.8851 44.7812 17.3718 44.9828 17.8794 44.9828C18.387 44.9828 18.8738 44.7812 19.2327 44.4223C19.5916 44.0634 19.7932 43.5766 19.7932 43.069V23.9311C19.7932 23.4235 19.5916 22.9367 19.2327 22.5778C18.8738 22.2189 18.387 22.0173 17.8794 22.0173ZM63.8104 16.2759C63.3029 16.2759 62.8161 16.4776 62.4572 16.8365C62.0983 17.1954 61.8967 17.6821 61.8967 18.1897V48.8104C61.8967 49.318 62.0983 49.8048 62.4572 50.1637C62.8161 50.5226 63.3029 50.7242 63.8104 50.7242C64.318 50.7242 64.8048 50.5226 65.1637 50.1637C65.5226 49.8048 65.7242 49.318 65.7242 48.8104V18.1897C65.7242 17.6821 65.5226 17.1954 65.1637 16.8365C64.8048 16.4776 64.318 16.2759 63.8104 16.2759ZM71.4656 12.4483C70.9581 12.4483 70.4713 12.65 70.1124 13.0089C69.7535 13.3678 69.5518 13.8546 69.5518 14.3621V52.638C69.5518 53.1456 69.7535 53.6323 70.1124 53.9912C70.4713 54.3502 70.9581 54.5518 71.4656 54.5518C71.9732 54.5518 72.46 54.3502 72.8189 53.9912C73.1778 53.6323 73.3794 53.1456 73.3794 52.638V14.3621C73.3794 13.8546 73.1778 13.3678 72.8189 13.0089C72.46 12.65 71.9732 12.4483 71.4656 12.4483ZM86.776 23.9311C86.2684 23.9311 85.7816 24.1327 85.4227 24.4916C85.0638 24.8505 84.8622 25.3373 84.8622 25.8449V41.1552C84.8622 41.6628 85.0638 42.1496 85.4227 42.5085C85.7816 42.8674 86.2684 43.069 86.776 43.069C87.2835 43.069 87.7703 42.8674 88.1292 42.5085C88.4881 42.1496 88.6898 41.6628 88.6898 41.1552V25.8449C88.6898 25.3373 88.4881 24.8505 88.1292 24.4916C87.7703 24.1327 87.2835 23.9311 86.776 23.9311ZM79.1208 18.1897C78.6132 18.1897 78.1264 18.3913 77.7675 18.7502C77.4086 19.1092 77.207 19.5959 77.207 20.1035V46.8966C77.207 47.4042 77.4086 47.891 77.7675 48.2499C78.1264 48.6088 78.6132 48.8104 79.1208 48.8104C79.6284 48.8104 80.1152 48.6088 80.4741 48.2499C80.833 47.891 81.0346 47.4042 81.0346 46.8966V20.1035C81.0346 19.5959 80.833 19.1092 80.4741 18.7502C80.1152 18.3913 79.6284 18.1897 79.1208 18.1897ZM94.4311 27.7587C93.9236 27.7587 93.4368 27.9603 93.0779 28.3192C92.719 28.6781 92.5173 29.1649 92.5173 29.6725V37.3276C92.5173 37.8352 92.719 38.322 93.0779 38.6809C93.4368 39.0398 93.9236 39.2414 94.4311 39.2414C94.9387 39.2414 95.4255 39.0398 95.7844 38.6809C96.1433 38.322 96.3449 37.8352 96.3449 37.3276V29.6725C96.3449 29.1649 96.1433 28.6781 95.7844 28.3192C95.4255 27.9603 94.9387 27.7587 94.4311 27.7587Z" fill="#FF00F5"/>
</svg>
